<svg width="222" height="42" viewBox="0 0 222 42" fill="none" xmlns="http://www.w3.org/2000/svg">
<g clip-path="url(#clip0_352_1072)">
<path d="M29.4305 20.0747L28.2066 19.271L32.9705 12.056L35.3618 8.41116C35.7384 7.85041 35.6631 7.08406 35.1735 6.61677L30.7863 2.24294C30.5226 1.98126 30.146 1.83172 29.7695 1.83172H10.6763C10.2244 1.83172 9.81017 2.03733 9.54656 2.37378L2.16539 11.7196C1.80763 12.1682 1.75114 12.7289 1.99592 13.2336C2.24071 13.7383 2.73027 14.0373 3.29516 14.0373H17.0972V15.4953H3.29516C2.16539 15.4953 1.16742 14.8785 0.677857 13.8691C0.188289 12.8598 0.320096 11.7009 0.997958 10.8224L8.37913 1.47658C8.94401 0.766303 9.77251 0.373779 10.6763 0.373779H29.7695C30.5415 0.373779 31.2758 0.672845 31.8219 1.2149L36.228 5.57004C37.2071 6.542 37.3578 8.05602 36.6046 9.19621L29.4305 20.0747Z" fill="#E6A320"/>
<path d="M29.5433 20.5794L27.6981 19.3832L33.008 11.3084L35.0604 8.20561C35.3428 7.79439 35.2863 7.21495 34.9286 6.8785L30.5225 2.52336C30.3154 2.31776 30.0517 2.20561 29.7693 2.20561H10.6762C10.3372 2.20561 10.036 2.35514 9.82884 2.61682L2.44767 11.9439C2.18406 12.2804 2.1464 12.6916 2.3347 13.0654C2.52299 13.4393 2.88075 13.6636 3.295 13.6636H17.4548V15.8692H3.295C2.03342 15.8692 0.903652 15.1589 0.338767 14.0374C-0.226119 12.9159 -0.0754827 11.5888 0.715357 10.5981L8.09653 1.25234C8.7179 0.448598 9.65938 0 10.6762 0H29.7693C30.6543 0 31.464 0.336449 32.0853 0.953271L36.4914 5.30841C37.5836 6.39252 37.7718 8.11215 36.9245 9.40187L29.5433 20.5794ZM28.7148 19.1589L29.3174 19.5514L36.2655 9.00935C36.9245 8.01869 36.7739 6.69159 35.9266 5.85047L31.5581 1.47664C31.0685 1.00935 30.4472 0.728972 29.7693 0.728972H10.6762C9.88533 0.728972 9.16981 1.08411 8.68024 1.70093L1.29907 11.0467C0.696527 11.8131 0.58355 12.8411 1.01663 13.7009C1.44971 14.5794 2.31587 15.1215 3.295 15.1215H16.7204V14.3925H3.295C2.57948 14.3925 1.97693 14.0187 1.65683 13.3832C1.33673 12.7477 1.43088 12.0374 1.86396 11.4766L9.24513 2.13084C9.58406 1.70093 10.1113 1.43925 10.6762 1.43925H29.7693C30.2589 1.43925 30.7108 1.62617 31.0497 1.96262L35.437 6.35514C36.0395 6.95327 36.1337 7.90654 35.6818 8.61682L32.9327 12.785L28.7148 19.1589Z" fill="#E6A320"/>
<path d="M31.9349 41.6263H12.8417C12.0697 41.6263 11.3354 41.3273 10.7893 40.7852L6.3832 36.4114C5.40406 35.4394 5.25343 33.9254 6.00661 32.7852L15.4025 18.5422L14.9883 21.6824C14.9506 21.9067 14.9318 22.131 14.9318 22.3927C14.8753 24.0002 15.3837 25.6077 16.2875 26.8039C17.2667 28.0749 18.6412 28.8413 20.4112 29.0656C20.9761 29.1404 21.541 29.1591 22.087 29.1404C24.2147 29.0469 26.0224 28.2245 27.171 26.7852L27.3969 26.5049H39.316C40.4458 26.5049 41.4438 27.1217 41.9333 28.131C42.4229 29.1404 42.2911 30.2992 41.6132 31.1778L34.2321 40.5235C33.6672 41.2151 32.8198 41.6263 31.9349 41.6263ZM9.54656 29.9628C8.75572 31.1591 7.98371 32.3553 7.2117 33.5703C6.83511 34.131 6.91042 34.8974 7.39999 35.3647L11.8061 39.7385C12.0697 40.0002 12.4463 40.1497 12.8229 40.1497H31.916C32.3679 40.1497 32.7822 39.9441 33.0458 39.6077L40.427 30.2619C40.7847 29.8133 40.8412 29.2525 40.5964 28.7478C40.3516 28.2432 39.8621 27.9441 39.2972 27.9441H28.0748C26.6626 29.5329 24.5537 30.4675 22.1435 30.5609C21.5221 30.5983 20.8819 30.5609 20.2229 30.4675C18.0952 30.1871 16.3252 29.2151 15.1201 27.645C14.3293 26.5983 13.7832 25.3086 13.5761 23.9441C12.2203 25.9628 10.8835 27.9628 9.54656 29.9628Z" fill="#E6A320"/>
<path d="M31.9349 42.0001H12.8418C11.9568 42.0001 11.1471 41.6636 10.5258 41.0468L6.11965 36.673C5.02754 35.5889 4.83925 33.8692 5.68657 32.5795L15.9675 16.9907L15.3649 21.7384C15.3461 21.944 15.3273 22.1683 15.3085 22.4113C15.2708 23.9253 15.7227 25.458 16.5889 26.5795C17.4927 27.7758 18.8107 28.486 20.4677 28.6917C21.0138 28.7664 21.5599 28.7851 22.0683 28.7664C24.083 28.673 25.7965 27.8879 26.8698 26.5608L27.2087 26.1496H39.3161C40.5777 26.1496 41.7074 26.8599 42.2723 27.9814C42.8184 29.1216 42.6866 30.43 41.8957 31.4206L34.5146 40.7664C33.8932 41.5328 32.9517 42.0001 31.9349 42.0001ZM14.8189 20.0748L6.30795 32.9907C5.64891 33.9814 5.79955 35.3085 6.64688 36.1496L11.053 40.5234C11.5237 41.0094 12.1639 41.2711 12.8418 41.2711H31.9349C32.7258 41.2711 33.4413 40.916 33.9308 40.2991L41.312 30.9533C41.9146 30.187 42.0275 29.1589 41.5945 28.2991C41.1614 27.4206 40.2952 26.8786 39.3161 26.8786H27.5665L27.4535 27.0094C26.2296 28.5234 24.3278 29.4019 22.0871 29.4954C21.5222 29.5141 20.9385 29.4954 20.3548 29.4206C18.4906 29.1776 17.0219 28.3739 15.9863 27.0094C15.026 25.7571 14.4988 24.0561 14.5553 22.3739C14.5553 22.1122 14.5741 21.8692 14.6118 21.6262L14.8189 20.0748ZM31.9349 40.5234H12.8418C12.3522 40.5234 11.9003 40.3365 11.5614 40.0001L7.15528 35.6449C6.55273 35.0468 6.45858 34.0935 6.91049 33.3832C7.60718 32.2618 8.37919 31.0842 9.24535 29.7758C10.3751 28.0561 11.5237 26.3365 12.6535 24.6543L13.7833 22.972L13.9339 23.9066C14.141 25.2337 14.6494 26.4487 15.4214 27.4393C16.57 28.9346 18.2459 29.8692 20.2794 30.1309C20.9197 30.2057 21.541 30.2431 22.1436 30.2057C24.4596 30.1122 26.4744 29.215 27.8113 27.701L27.9242 27.5702H39.3161C40.0316 27.5702 40.6342 27.944 40.9543 28.5795C41.2744 29.215 41.1802 29.9253 40.7471 30.486L33.366 39.8318C33.0082 40.2804 32.481 40.5234 31.9349 40.5234ZM9.86673 30.1683C9.00057 31.4767 8.24739 32.6543 7.5507 33.7758C7.26825 34.2057 7.32474 34.7664 7.6825 35.1216L12.0886 39.4954C12.2957 39.701 12.5593 39.8132 12.8418 39.8132H31.9349C32.2739 39.8132 32.5751 39.6636 32.7823 39.4019L40.1634 30.0561C40.427 29.7197 40.4647 29.3085 40.2764 28.9346C40.0881 28.5608 39.7303 28.3365 39.3161 28.3365H28.2443C26.7568 29.9253 24.6102 30.8599 22.1624 30.9533C21.5222 30.9907 20.8632 30.9533 20.1665 30.8599C17.9258 30.5795 16.0805 29.5515 14.8189 27.8879C14.1599 27.0281 13.6703 26.0001 13.3878 24.8973L13.2749 25.0655C12.1451 26.729 10.9965 28.4674 9.86673 30.1683Z" fill="#E6A320"/>
<path d="M22.03 30.5981C20.0341 30.5981 17.3038 29.9439 15.4397 28C13.858 26.3738 13.2178 24.1869 13.5191 21.4953C13.7827 19.4019 14.7618 16.9907 16.4565 14.3738C18.5089 11.1776 20.8626 8.82244 20.9567 8.71029L21.371 8.29907L21.8606 8.59814C23.2163 9.40188 25.344 11.7757 27.0198 14.3738C28.1684 16.1308 29.0346 17.8879 29.5242 19.458C29.9008 20.6542 30.0891 21.757 30.0514 22.7477C29.9761 24.7664 29.1852 26.8411 28.0743 27.9252C27.773 28.2991 26.0031 30.3365 22.6137 30.5794C22.4254 30.5981 22.2371 30.5981 22.03 30.5981ZM14.9878 21.6636C14.743 23.8879 15.2514 25.6822 16.513 26.9907C18.1135 28.6355 20.6743 29.2337 22.5196 29.1215C25.457 28.9159 26.888 27.0841 26.9445 27.0094L27.0198 26.9159C27.886 26.0935 28.5262 24.3551 28.5827 22.6916C28.6204 21.8692 28.4509 20.9346 28.1308 19.8879C27.6789 18.4486 26.8692 16.8037 25.7959 15.1589C24.3084 12.8785 22.6514 11.028 21.5969 10.1869C20.8438 11.0094 19.1868 12.8785 17.7181 15.1589C16.1364 17.5888 15.2137 19.7757 14.9878 21.6636Z" fill="#E6A320"/>
<path d="M22.0303 30.972C21.0323 30.972 17.6053 30.7851 15.1763 28.2617C13.5193 26.5421 12.8415 24.2617 13.1616 21.458C13.4252 19.2897 14.442 16.8411 16.1554 14.1682C18.2267 10.9533 20.5992 8.54207 20.6934 8.44861L21.2959 7.83179L22.0491 8.28038C23.4613 9.12151 25.6267 11.5327 27.3214 14.1682C28.47 15.9439 29.3549 17.7383 29.8633 19.3271C30.2588 20.5608 30.4471 21.7196 30.4094 22.7477C30.3341 24.8411 29.5056 27.0094 28.3381 28.1682C27.9616 28.6355 26.0974 30.6916 22.6328 30.9346C22.4445 30.9533 22.2374 30.972 22.0303 30.972ZM21.4277 8.76637L21.2206 8.97197C21.1264 9.06543 18.8104 11.4019 16.7768 14.5608C15.1198 17.1402 14.1407 19.4766 13.8959 21.5327C13.6135 24.1122 14.216 26.2056 15.7224 27.7383C17.9443 30.0374 21.1076 30.2056 22.0303 30.2056C22.2186 30.2056 22.4068 30.2056 22.5951 30.1869C25.7962 29.9626 27.4908 28.0561 27.7921 27.6636L27.8297 27.6262C28.8842 26.5981 29.6186 24.6168 29.6939 22.6916C29.7315 21.757 29.5621 20.6916 29.1855 19.5327C28.6959 18 27.8486 16.2617 26.7188 14.5421C25.0618 12 22.9906 9.66356 21.6913 8.89721L21.4277 8.76637ZM22.0303 29.514C20.1473 29.514 17.7748 28.8411 16.2308 27.2523C14.8939 25.8692 14.3478 23.9813 14.6114 21.6262C14.8562 19.6823 15.7789 17.4393 17.3794 14.972C18.8292 12.7103 20.4674 10.8598 21.2959 9.94394L21.5219 9.68225L21.7855 9.90655C22.7458 10.6729 24.4404 12.4486 26.0598 14.972C27.1519 16.6542 27.9616 18.3178 28.4323 19.7944C28.7712 20.8785 28.9407 21.8505 28.903 22.7103C28.8465 24.4486 28.1499 26.2804 27.2272 27.1776L27.1707 27.2523C27.0201 27.4393 25.4949 29.2897 22.4822 29.514C22.3692 29.4953 22.1997 29.514 22.0303 29.514ZM15.3646 21.7009C15.1198 23.8131 15.6094 25.514 16.7768 26.729C18.2832 28.2804 20.731 28.8598 22.4822 28.7477C25.2501 28.5608 26.587 26.8411 26.6435 26.7664L26.7565 26.6355C27.5473 25.8879 28.1499 24.2056 28.2063 22.6542C28.2252 21.8692 28.0934 20.972 27.7733 19.9813C27.3214 18.5608 26.5305 16.9533 25.4761 15.3458C24.045 13.1215 22.5575 11.514 21.616 10.6916C20.7499 11.6449 19.3188 13.3458 18.0196 15.3458C16.4756 17.7383 15.5906 19.8879 15.3646 21.7009Z" fill="#E6A320"/>
<path d="M57.2041 36.7664V4.67295C57.2041 4.52342 57.3359 4.39258 57.4865 4.39258H68.7278C71.2886 4.39258 73.4163 4.82248 75.111 5.6823C76.8056 6.54211 78.0672 7.70099 78.8957 9.17762C79.7242 10.6543 80.1385 12.3178 80.1385 14.187C80.1385 15.9627 79.743 17.5888 78.9334 19.0655C78.1425 20.5421 76.8809 21.7197 75.2051 22.5795C73.5105 23.458 71.3451 23.8879 68.7278 23.8879H62.4764C62.3257 23.8879 62.1939 24.0187 62.1939 24.1683V36.7664C62.1939 36.9159 62.0621 37.0468 61.9115 37.0468H57.4865C57.3171 37.0281 57.2041 36.9159 57.2041 36.7664ZM62.1751 19.5515C62.1751 19.701 62.3069 19.8318 62.4575 19.8318H68.483C70.8367 19.8318 72.5125 19.3272 73.5293 18.3178C74.5461 17.3085 75.0545 15.9253 75.0545 14.187C75.0545 12.3926 74.5461 10.972 73.5293 9.96267C72.5125 8.95333 70.8367 8.44865 68.483 8.44865H62.4575C62.3069 8.44865 62.1751 8.57949 62.1751 8.72903V19.5515Z" fill="#F4F3F3"/>
<path d="M82.6807 36.7665V14.1871C82.6807 14.0375 82.8125 13.9067 82.9631 13.9067H86.8985C87.0491 13.9067 87.1621 14.0188 87.1809 14.1497L87.501 17.4394C87.5199 17.7011 87.8588 17.7759 88.0094 17.5702C88.7814 16.374 89.7794 15.4207 90.9845 14.673C92.3779 13.8319 94.0349 13.3833 95.9931 13.3459C96.1438 13.3459 96.2756 13.4768 96.2756 13.6263V18.2431C96.2756 18.3927 96.1438 18.5235 95.9931 18.5235H94.901C93.5265 18.5235 92.3025 18.7478 91.2104 19.1964C90.1372 19.645 89.271 20.4114 88.6308 21.4768C87.9906 22.5422 87.6705 24.0375 87.6705 25.9254V36.7478C87.6705 36.8974 87.5387 37.0282 87.388 37.0282H82.9631C82.8125 37.0282 82.6807 36.916 82.6807 36.7665Z" fill="#F4F3F3"/>
<path d="M99.9658 36.7663V14.1869C99.9658 14.0373 100.098 13.9065 100.248 13.9065H104.673C104.824 13.9065 104.956 14.0373 104.956 14.1869V36.7663C104.956 36.9158 104.824 37.0467 104.673 37.0467H100.248C100.098 37.028 99.9658 36.9158 99.9658 36.7663Z" fill="#F4F3F3"/>
<path d="M109.287 36.7664V14.187C109.287 14.0374 109.418 13.9066 109.569 13.9066H113.467C113.617 13.9066 113.73 14.0187 113.749 14.1496L114.013 17.0842C114.032 17.3458 114.371 17.4206 114.521 17.1963C115.218 16.1122 116.122 15.2337 117.27 14.5608C118.664 13.7384 120.264 13.3271 122.091 13.3271C124.915 13.3271 127.118 14.2057 128.738 15.944C130.357 17.6823 131.148 20.2804 131.148 23.7384V36.7477C131.148 36.8972 131.016 37.0281 130.865 37.0281H126.478C126.327 37.0281 126.196 36.8972 126.196 36.7477V24.243C126.196 19.7571 124.35 17.5328 120.66 17.5328C118.814 17.5328 117.289 18.187 116.084 19.4954C114.879 20.8038 114.276 22.6729 114.276 25.0842V36.7477C114.276 36.8972 114.145 37.0281 113.994 37.0281H109.569C109.418 37.0281 109.287 36.9159 109.287 36.7664Z" fill="#F4F3F3"/>
<path d="M145.006 37.028C142.728 37.028 140.901 36.4673 139.565 35.3645C138.209 34.2617 137.55 32.299 137.55 29.4579V18.3364C137.55 18.1869 137.418 18.056 137.267 18.056H133.822C133.671 18.056 133.539 17.9252 133.539 17.7757V14.1869C133.539 14.0374 133.671 13.9065 133.822 13.9065H137.286C137.437 13.9065 137.55 13.7944 137.569 13.6635L138.133 8.28034C138.152 8.1495 138.265 8.03735 138.416 8.03735H142.257C142.408 8.03735 142.54 8.16819 142.54 8.31773V13.6448C142.54 13.7944 142.671 13.9252 142.822 13.9252H148.847C148.998 13.9252 149.13 14.056 149.13 14.2056V17.8131C149.13 17.9626 148.998 18.0934 148.847 18.0934H142.822C142.671 18.0934 142.54 18.2243 142.54 18.3738V29.5327C142.54 30.8037 142.822 31.6822 143.368 32.1682C143.914 32.6542 144.856 32.8972 146.211 32.8972H148.621C148.772 32.8972 148.904 33.028 148.904 33.1775V36.8224C148.904 36.9719 148.772 37.1028 148.621 37.1028H145.006V37.028Z" fill="#F4F3F3"/>
<path d="M151.729 36.7663V33.1214C151.729 33.0654 151.747 32.9906 151.785 32.9532L163.798 18.4672C163.949 18.2803 163.817 18.0186 163.591 18.0186H152.199C152.049 18.0186 151.917 17.8878 151.917 17.7383V14.1869C151.917 14.0373 152.049 13.9065 152.199 13.9065H169.541C169.692 13.9065 169.824 14.0373 169.824 14.1869V17.8317C169.824 17.8878 169.805 17.9626 169.767 18L157.66 32.4859C157.509 32.6728 157.641 32.9345 157.867 32.9345H169.786C169.937 32.9345 170.068 33.0654 170.068 33.2149V36.7663C170.068 36.9158 169.937 37.0467 169.786 37.0467H152.011C151.841 37.028 151.729 36.9158 151.729 36.7663Z" fill="#F4F3F3"/>
<path d="M182.402 37.5887C179.577 37.5887 177.374 36.7102 175.755 34.9719C174.136 33.2336 173.345 30.6355 173.345 27.1775V14.1869C173.345 14.0373 173.477 13.9065 173.627 13.9065H178.052C178.203 13.9065 178.335 14.0373 178.335 14.1869V26.6915C178.335 31.1775 180.18 33.4018 183.87 33.4018C185.716 33.4018 187.241 32.7476 188.427 31.4392C189.613 30.1308 190.216 28.2616 190.216 25.8504V14.1869C190.216 14.0373 190.348 13.9065 190.498 13.9065H194.923C195.074 13.9065 195.206 14.0373 195.206 14.1869V36.7663C195.206 36.9158 195.074 37.0467 194.923 37.0467H191.044C190.894 37.0467 190.781 36.9345 190.762 36.8037L190.498 33.8691C190.48 33.6074 190.141 33.5327 189.99 33.757C189.293 34.8411 188.39 35.7196 187.241 36.3925C185.829 37.1775 184.209 37.5887 182.402 37.5887Z" fill="#F4F3F3"/>
<path d="M199.744 36.7665V14.1871C199.744 14.0375 199.875 13.9067 200.026 13.9067H203.961C204.112 13.9067 204.225 14.0188 204.244 14.1497L204.564 17.4394C204.583 17.7011 204.922 17.7759 205.072 17.5702C205.844 16.374 206.842 15.4207 208.047 14.673C209.441 13.8319 211.098 13.3833 213.056 13.3459C213.207 13.3459 213.339 13.4768 213.339 13.6263V18.2431C213.339 18.3927 213.207 18.5235 213.056 18.5235H211.964C210.589 18.5235 209.366 18.7478 208.273 19.1964C207.2 19.645 206.334 20.4114 205.694 21.4768C205.054 22.5422 204.733 24.0375 204.733 25.9254V36.7478C204.733 36.8974 204.602 37.0282 204.451 37.0282H200.026C199.875 37.0282 199.744 36.916 199.744 36.7665Z" fill="#F4F3F3"/>
<path d="M216.991 36.7663V14.1869C216.991 14.0373 217.123 13.9065 217.274 13.9065H221.699C221.849 13.9065 221.981 14.0373 221.981 14.1869V36.7663C221.981 36.9158 221.849 37.0467 221.699 37.0467H217.274C217.104 37.028 216.991 36.9158 216.991 36.7663Z" fill="#F4F3F3"/>
<path d="M102.658 4.80371H100.55C100.229 4.80371 99.9658 5.06539 99.9658 5.38315V9.30838C99.9658 9.62614 100.229 9.88782 100.55 9.88782H104.372C104.692 9.88782 104.956 9.62614 104.956 9.30838V7.06539C104.956 6.91586 104.899 6.76633 104.786 6.65418L103.073 4.95324C102.96 4.85979 102.828 4.80371 102.658 4.80371Z" fill="#E6A320"/>
<path d="M219.722 4.80371H217.594C217.274 4.80371 217.01 5.06539 217.01 5.38315V9.30838C217.01 9.62614 217.274 9.88782 217.594 9.88782H221.416C221.736 9.88782 222 9.62614 222 9.30838V7.06539C222 6.91586 221.944 6.76633 221.831 6.65418L220.117 4.95324C220.023 4.85979 219.872 4.80371 219.722 4.80371Z" fill="#E6A320"/>
</g>
<defs>
<clipPath id="clip0_352_1072">
<rect width="222" height="42" fill="white"/>
</clipPath>
</defs>
</svg>
