<svg width="24" height="21" viewBox="0 0 24 21" fill="none" xmlns="http://www.w3.org/2000/svg">
<path d="M21.0586 5.67919C21.0678 5.89039 21.0679 6.09199 21.0679 6.30319C21.0771 12.7064 16.3726 20.0984 7.76939 20.0984C5.23194 20.0984 2.7408 19.34 0.601562 17.9192C0.971993 17.9672 1.34242 17.9864 1.71285 17.9864C3.81505 17.9864 5.86168 17.2568 7.51935 15.9032C5.51903 15.8648 3.75948 14.5112 3.14827 12.5336C3.85209 12.6776 4.57443 12.6488 5.25973 12.4472C3.08345 12.0056 1.51838 10.0184 1.50912 7.7048C1.50912 7.6856 1.50912 7.6664 1.50912 7.6472C2.15737 8.0216 2.88897 8.2328 3.62983 8.252C1.5832 6.8312 0.944211 3.99919 2.18515 1.78158C4.56517 4.81519 8.06574 6.64879 11.8256 6.8504C11.4459 5.17039 11.9645 3.40398 13.1777 2.21358C15.0576 0.379974 18.0211 0.475975 19.7991 2.42478C20.8456 2.21358 21.855 1.81038 22.7718 1.24398C22.4199 2.36718 21.6883 3.31758 20.7159 3.92239C21.642 3.80719 22.5496 3.54798 23.4016 3.16398C22.7718 4.14319 21.9754 4.98799 21.0586 5.67919Z" fill="#1D9BF0"/>
</svg>
