<svg width="24" height="25" viewBox="0 0 24 25" fill="none" xmlns="http://www.w3.org/2000/svg">
<path d="M23.5057 6.73088C23.2289 5.70287 22.4184 4.89233 21.3904 4.61556C19.5123 4.10156 11.9999 4.10156 11.9999 4.10156C11.9999 4.10156 4.48762 4.10156 2.60954 4.59579C1.60131 4.87256 0.771002 5.70287 0.494232 6.73088C0 8.60896 0 12.5035 0 12.5035C0 12.5035 0 16.4178 0.494232 18.2761C0.771002 19.3041 1.58154 20.1147 2.60954 20.3914C4.50739 20.9054 11.9999 20.9054 11.9999 20.9054C11.9999 20.9054 19.5123 20.9054 21.3904 20.4112C22.4184 20.1344 23.2289 19.3239 23.5057 18.2959C23.9999 16.4178 23.9999 12.5233 23.9999 12.5233C23.9999 12.5233 24.0197 8.60896 23.5057 6.73088Z" fill="#FF0000"/>
<path d="M9.60938 16.1023L15.8565 12.5043L9.60938 8.90625V16.1023Z" fill="white"/>
</svg>
